<svg xmlns="http://www.w3.org/2000/svg" width="3246" height="1112" fill="none">
  <mask id="a" width="309" height="228" x="2655" y="515" maskUnits="userSpaceOnUse" style="mask-type:alpha">
    <path fill="#ECF8FE" stroke="#ECF8FE" stroke-width="24" d="M2951.88 556.883c-14.15-17.662-37.82-34.362-72.31-27.701-15.62 3.015-30.56 10.116-46.77 17.819-38.88 18.475-85.04 40.415-165.3 17.771-.15-.043-.31-.086-.46-.13v166.319h90.03c88.12 0 194.81-23.175 194.81-173.813v-.265Z"/>
  </mask>
  <g mask="url(#a)">
    <path fill="url(#b)" d="M3469.16-611.621h1710.36v1911.1H3469.16z" transform="rotate(69 3469.16 -611.621)"/>
    <path fill="#1D1E23" d="m3469.16-611.621 612.938 1596.759-1784.165 684.877L1684.994 73.256z" opacity=".4"/>
  </g>
  <mask id="c" width="495" height="609" x="2562" y="251" maskUnits="userSpaceOnUse" style="mask-type:alpha">
    <path fill="#ECF8FE" stroke="#ECF8FE" d="M2562.96 835.029V276.485c0-13.254 10.76-24 24.01-24h131.81c152.51 0 337.18 44.929 337.18 305.679s-184.67 300.865-337.18 300.865h-131.79c-13.26 0-24.03-10.745-24.03-24Z"/>
  </mask>
  <g filter="url(#d)" mask="url(#c)">
    <mask id="e" width="495" height="693" x="2562" y="167" maskUnits="userSpaceOnUse" style="mask-type:alpha">
      <path fill="#ECF8FE" fill-rule="evenodd" d="M2667.41 252.485v-60.172c0-13.255 10.75-24.001 24-24.001h161.07c13.25 0 24 10.746 24 24.001v82.305c98.77 33.108 179.48 111.165 179.48 283.546 0 260.75-184.67 300.865-337.18 300.865h-131.79c-13.26 0-24.03-10.745-24.03-24V276.485c0-13.255 10.76-24 24.01-24h80.44Zm-.37 478.476V380.553h90.03c88.12 0 194.81 25.956 194.81 176.595 0 150.638-106.69 173.813-194.81 173.813h-90.03Z" clip-rule="evenodd"/>
      <path fill="#ECF8FE" d="M2667.41 252.485v.5h.5v-.5h-.5Zm209.07 22.133h-.5v.36l.34.114.16-.474Zm-289.51-22.133v-.5.5Zm80.07 128.068v-.5h-.5v.5h.5Zm0 350.408h-.5v.5h.5v-.5Zm90.03-350.408v-.5.5Zm-90.16-188.24v60.172h1v-60.172h-1Zm24.5-24.501c-13.53 0-24.5 10.97-24.5 24.501h1c0-12.979 10.52-23.501 23.5-23.501v-1Zm161.07 0h-161.07v1h161.07v-1Zm24.5 24.501c0-13.531-10.97-24.501-24.5-24.501v1c12.98 0 23.5 10.522 23.5 23.501h1Zm0 82.305v-82.305h-1v82.305h1Zm179.48 283.546c0-86.269-20.2-148.988-52.79-194.292-32.6-45.305-77.57-73.149-127.03-89.728l-.32.948c49.31 16.529 94.08 44.268 126.53 89.364 32.45 45.096 52.61 107.596 52.61 193.708h1Zm-337.68 301.365c76.28 0 160.7-10.028 226.06-52.733 65.39-42.732 111.62-118.122 111.62-248.632h-1c0 130.24-46.11 205.282-111.17 247.795-65.11 42.54-149.28 52.57-225.51 52.57v1Zm-131.79 0h131.79v-1h-131.79v1Zm-24.53-24.5c0 13.531 11 24.5 24.53 24.5v-1c-12.98 0-23.53-10.522-23.53-23.5h-1Zm0-558.544v558.544h1V276.485h-1Zm24.51-24.5c-13.53 0-24.51 10.969-24.51 24.5h1c0-12.978 10.53-23.5 23.51-23.5v-1Zm80.44 0h-80.44v1h80.44v-1Zm-.87 128.568v350.408h1V380.553h-1Zm90.53-.5h-90.03v1h90.03v-1Zm195.31 177.095c0-75.454-26.73-119.774-64.58-145.202-37.82-25.403-86.64-31.893-130.73-31.893v1c44.02 0 92.61 6.488 130.17 31.723 37.53 25.209 64.14 69.187 64.14 144.372h1Zm-195.31 174.313c44.08 0 92.91-5.793 130.72-30.499 37.86-24.733 64.59-68.36 64.59-143.814h-1c0 75.184-26.61 118.463-64.13 142.977-37.57 24.541-86.15 30.336-130.18 30.336v1Zm-90.03 0h90.03v-1h-90.03v1Z"/>
    </mask>
    <g mask="url(#e)">
      <path fill="#1D1E23" d="m3469.16-611.621 612.938 1596.759-1784.165 684.877L1684.994 73.256z"/>
    </g>
  </g>
  <mask id="f" width="495" height="693" x="2562" y="167" maskUnits="userSpaceOnUse" style="mask-type:alpha">
    <path fill="#ECF8FE" fill-rule="evenodd" stroke="#ECF8FE" d="M2667.41 252.485v-60.172c0-13.255 10.75-24.001 24-24.001h161.07c13.25 0 24 10.746 24 24.001v82.305c98.77 33.108 179.48 111.165 179.48 283.546 0 260.75-184.67 300.865-337.18 300.865h-131.79c-13.26 0-24.03-10.746-24.03-24V276.485c0-13.255 10.76-24 24.01-24h80.44Zm-.37 478.476V380.553h90.03c88.12 0 194.81 25.956 194.81 176.594 0 150.639-106.69 173.814-194.81 173.814h-90.03Z" clip-rule="evenodd"/>
    <path fill="#78D7D3" stroke="#78D7D3" stroke-width="16" d="m2764.74 572.095 33.57-120.646c.31-1.122 1.96-.896 1.96.268v92.83c0 .552.45 1 1 1h33.82c1.32 0 2.28 1.262 1.93 2.537l-34.79 124.65c-.31 1.121-1.96.895-1.96-.268v-96.835c0-.552-.45-1-1-1h-32.6a2.005 2.005 0 0 1-1.93-2.536Z"/>
  </mask>
  <g mask="url(#f)">
    <path fill="url(#g)" d="M3469.16-611.621h1710.36v1911.1H3469.16z" transform="rotate(69 3469.16 -611.621)"/>
  </g>
  <mask id="h" width="2290" height="763" x="182" y="269" maskUnits="userSpaceOnUse" style="mask-type:alpha">
    <path fill="white" d="M705.795 480.875H581.364c-2.273-16.098-6.913-30.398-13.921-42.898-7.007-12.689-16.004-23.485-26.988-32.386-10.985-8.902-23.675-15.72-38.069-20.455-14.204-4.734-29.64-7.102-46.306-7.102-30.114 0-56.345 7.481-78.694 22.443-22.348 14.773-39.678 36.364-51.988 64.773-12.311 28.22-18.466 62.5-18.466 102.841 0 41.477 6.155 76.326 18.466 104.545 12.5 28.22 29.924 49.527 52.272 63.921 22.349 14.394 48.201 21.591 77.557 21.591 16.478 0 31.724-2.178 45.739-6.534 14.204-4.356 26.799-10.701 37.784-19.034 10.985-8.523 20.076-18.845 27.273-30.966 7.386-12.122 12.5-25.947 15.341-41.478l124.431.569c-3.219 26.704-11.268 52.462-24.147 77.272-12.69 24.621-29.83 46.686-51.421 66.193-21.401 19.319-46.969 34.66-76.704 46.023-29.546 11.174-62.974 16.762-100.284 16.762-51.894 0-98.296-11.743-139.205-35.228-40.72-23.485-72.917-57.481-96.591-101.988-23.485-44.508-35.227-98.391-35.227-161.648 0-63.447 11.932-117.424 35.795-161.932 23.864-44.507 56.25-78.409 97.159-101.704 40.91-23.485 86.932-35.228 138.069-35.228 33.712 0 64.962 4.735 93.75 14.205 28.977 9.47 54.64 23.295 76.988 41.477 22.349 17.992 40.531 40.057 54.546 66.193 14.204 26.137 23.295 56.061 27.272 89.773Zm206.961 125.852V859H791.733V277.182h117.614v222.443h5.113c9.849-25.758 25.758-45.928 47.728-60.511 21.969-14.773 49.522-22.159 82.672-22.159 30.3 0 56.72 6.628 79.26 19.886 22.73 13.068 40.34 31.913 52.84 56.534 12.69 24.432 18.94 53.693 18.75 87.784V859h-121.02V602.75c.19-26.894-6.63-47.822-20.46-62.784-13.63-14.962-32.76-22.443-57.383-22.443-16.478 0-31.061 3.504-43.75 10.511-12.5 7.008-22.349 17.235-29.546 30.682-7.007 13.257-10.606 29.261-10.795 48.011Zm502.624 260.512c-27.84 0-52.65-4.83-74.43-14.489-21.78-9.848-39.01-24.337-51.7-43.466-12.5-19.318-18.75-43.371-18.75-72.159 0-24.242 4.45-44.602 13.35-61.08 8.9-16.477 21.02-29.734 36.36-39.772 15.34-10.038 32.77-17.614 52.28-22.728 19.69-5.113 40.34-8.712 61.93-10.795 25.38-2.652 45.83-5.114 61.36-7.386 15.53-2.462 26.8-6.061 33.81-10.796 7.01-4.735 10.51-11.742 10.51-21.023v-1.704c0-17.993-5.68-31.913-17.05-41.761-11.17-9.849-27.08-14.773-47.72-14.773-21.78 0-39.11 4.829-51.99 14.488-12.88 9.47-21.4 21.402-25.57 35.796l-111.93-9.091c5.68-26.515 16.85-49.432 33.52-68.75 16.67-19.508 38.16-34.47 64.49-44.886 26.51-10.606 57.2-15.909 92.04-15.909 24.25 0 47.45 2.84 69.61 8.522 22.35 5.682 42.14 14.489 59.37 26.421 17.43 11.932 31.16 27.272 41.2 46.022 10.03 18.561 15.05 40.815 15.05 66.762V859h-114.77v-60.511h-3.41c-7.01 13.636-16.38 25.663-28.12 36.079-11.75 10.227-25.86 18.277-42.33 24.148-16.48 5.682-35.52 8.523-57.11 8.523Zm34.66-83.523c17.81 0 33.53-3.504 47.16-10.511 13.64-7.197 24.34-16.857 32.1-28.978 7.77-12.121 11.65-25.852 11.65-41.193v-46.307c-3.79 2.462-8.99 4.735-15.62 6.818-6.44 1.894-13.73 3.694-21.88 5.398-8.14 1.515-16.29 2.936-24.43 4.262-8.14 1.136-15.53 2.178-22.16 3.125-14.2 2.083-26.61 5.397-37.22 9.943-10.6 4.545-18.84 10.7-24.71 18.466-5.87 7.575-8.81 17.045-8.81 28.409 0 16.477 5.97 29.072 17.9 37.784 12.12 8.523 27.46 12.784 46.02 12.784ZM1755.01 859V422.636h117.33v76.137h4.55c7.95-27.084 21.31-47.538 40.06-61.364 18.75-14.015 40.34-21.023 64.77-21.023 6.06 0 12.59.379 19.6 1.137 7.01.757 13.16 1.799 18.47 3.125v107.386c-5.68-1.704-13.54-3.22-23.58-4.545-10.04-1.326-19.23-1.989-27.56-1.989-17.8 0-33.71 3.883-47.73 11.648-13.82 7.575-24.81 18.182-32.95 31.818-7.96 13.636-11.93 29.356-11.93 47.159V859h-121.03Zm503.63 172.73c-39.21 0-72.83-5.4-100.86-16.2-27.84-10.6-50-25.091-66.47-43.462-16.48-18.371-27.18-39.015-32.11-61.932l111.94-15.056c3.41 8.712 8.8 16.856 16.19 24.431 7.39 7.576 17.14 13.637 29.26 18.182 12.31 4.735 27.27 7.102 44.89 7.102 26.32 0 48.01-6.439 65.05-19.318 17.24-12.689 25.86-33.996 25.86-63.92v-79.83h-5.12c-5.3 12.121-13.25 23.58-23.86 34.375-10.61 10.796-24.24 19.603-40.91 26.421-16.67 6.818-36.55 10.227-59.66 10.227-32.76 0-62.59-7.576-89.49-22.727-26.7-15.341-48.01-38.731-63.92-70.171-15.72-31.629-23.58-71.591-23.58-119.886 0-49.432 8.05-90.72 24.15-123.864 16.1-33.144 37.5-57.954 64.2-74.432 26.9-16.477 56.35-24.715 88.36-24.715 24.43 0 44.88 4.166 61.36 12.5 16.48 8.143 29.74 18.371 39.77 30.681 10.23 12.122 18.09 24.053 23.58 35.796h4.55v-73.296h120.17v440.625c0 37.122-9.09 68.182-27.27 93.182-18.19 25-43.38 43.747-75.57 56.247-32.01 12.69-68.85 19.04-110.51 19.04Zm2.55-269.889c19.51 0 35.99-4.83 49.43-14.489 13.64-9.848 24.06-23.863 31.26-42.045 7.38-18.371 11.07-40.341 11.07-65.909 0-25.568-3.59-47.728-10.79-66.478-7.2-18.939-17.61-33.617-31.25-44.034-13.64-10.416-30.21-15.625-49.72-15.625-19.88 0-36.64 5.398-50.28 16.194-13.64 10.606-23.96 25.378-30.97 44.318-7 18.939-10.51 40.814-10.51 65.625 0 25.189 3.51 46.969 10.51 65.341 7.2 18.181 17.52 32.291 30.97 42.329 13.64 9.849 30.4 14.773 50.28 14.773Z"/>
  </mask>
  <g mask="url(#h)">
    <path fill="url(#i)" d="M0 0h2208.31v3353.16H0z" transform="matrix(.38 .92 -.94 .33 2321.79 -1217.27)"/>
  </g>
  <defs>
    <linearGradient id="b" x1="4526.66" x2="4154.35" y1="775.7" y2="141.125" gradientUnits="userSpaceOnUse">
      <stop stop-color="#D9C7FF"/>
      <stop offset=".5" stop-color="#78CBF6"/>
      <stop offset="1" stop-color="#78D7D3"/>
    </linearGradient>
    <linearGradient id="g" x1="4526.66" x2="4154.35" y1="775.7" y2="141.125" gradientUnits="userSpaceOnUse">
      <stop stop-color="#D9C7FF"/>
      <stop offset=".5" stop-color="#78CBF6"/>
      <stop offset="1" stop-color="#78D7D3"/>
    </linearGradient>
    <linearGradient id="i" x1="1216.52" x2="1658.81" y1="2688.52" y2="487.792" gradientUnits="userSpaceOnUse">
      <stop stop-color="#D9C7FF"/>
      <stop offset=".5" stop-color="#78CBF6"/>
      <stop offset="1" stop-color="#78D7D3"/>
    </linearGradient>
    <filter id="d" width="564" height="761.716" x="2527.46" y="132.812" color-interpolation-filters="sRGB" filterUnits="userSpaceOnUse">
      <feFlood flood-opacity="0" result="BackgroundImageFix"/>
      <feBlend in="SourceGraphic" in2="BackgroundImageFix" result="shape"/>
      <feGaussianBlur result="effect1_foregroundBlur_8_494" stdDeviation="17.5"/>
    </filter>
  </defs>
  <script/>
</svg>
