<svg width="3246" height="1112" viewBox="0 0 3246 1112" fill="none" xmlns="http://www.w3.org/2000/svg">
<mask id="mask0_8_494" style="mask-type:alpha" maskUnits="userSpaceOnUse" x="2655" y="515" width="309" height="228">
<path d="M2951.88 556.883C2937.73 539.221 2914.06 522.521 2879.57 529.182C2863.95 532.197 2849.01 539.298 2832.8 547.001C2793.92 565.476 2747.76 587.416 2667.5 564.772C2667.35 564.729 2667.19 564.686 2667.04 564.642V730.961H2757.07C2845.19 730.961 2951.88 707.786 2951.88 557.148C2951.88 557.059 2951.88 556.971 2951.88 556.883Z" fill="#ECF8FE" stroke="#ECF8FE" stroke-width="24"/>
</mask>
<g mask="url(#mask0_8_494)">
<rect x="3469.16" y="-611.621" width="1710.36" height="1911.1" transform="rotate(69 3469.16 -611.621)" fill="url(#paint0_linear_8_494)"/>
<rect opacity="0.4" x="3469.16" y="-611.621" width="1710.36" height="1911.1" transform="rotate(69 3469.16 -611.621)" fill="#1D1E23"/>
</g>
<mask id="mask1_8_494" style="mask-type:alpha" maskUnits="userSpaceOnUse" x="2562" y="251" width="495" height="609">
<path d="M2562.96 835.029V276.485C2562.96 263.231 2573.72 252.485 2586.97 252.485L2718.78 252.485C2871.29 252.485 3055.96 297.414 3055.96 558.164C3055.96 818.914 2871.29 859.029 2718.78 859.029H2586.99C2573.73 859.029 2562.96 848.284 2562.96 835.029Z" fill="#ECF8FE" stroke="#ECF8FE"/>
</mask>
<g mask="url(#mask1_8_494)">
<g filter="url(#filter0_f_8_494)">
<mask id="mask2_8_494" style="mask-type:alpha" maskUnits="userSpaceOnUse" x="2562" y="167" width="495" height="693">
<path fill-rule="evenodd" clip-rule="evenodd" d="M2667.41 252.485V192.313C2667.41 179.058 2678.16 168.312 2691.41 168.312H2852.48C2865.73 168.312 2876.48 179.058 2876.48 192.313V274.618C2975.25 307.726 3055.96 385.783 3055.96 558.164C3055.96 818.914 2871.29 859.029 2718.78 859.029H2586.99C2573.73 859.029 2562.96 848.284 2562.96 835.029V276.485C2562.96 263.23 2573.72 252.485 2586.97 252.485L2667.41 252.485ZM2667.04 730.961V380.553L2757.07 380.553C2845.19 380.553 2951.88 406.509 2951.88 557.148C2951.88 707.786 2845.19 730.961 2757.07 730.961H2667.04Z" fill="#ECF8FE"/>
<path d="M2667.41 252.485L2667.41 252.985L2667.91 252.985V252.485H2667.41ZM2876.48 274.618H2875.98V274.978L2876.32 275.092L2876.48 274.618ZM2586.97 252.485L2586.97 251.985L2586.97 251.985L2586.97 252.485ZM2667.04 380.553L2667.04 380.053L2666.54 380.053V380.553H2667.04ZM2667.04 730.961H2666.54V731.461H2667.04V730.961ZM2757.07 380.553L2757.07 380.053L2757.07 380.053L2757.07 380.553ZM2666.91 192.313V252.485H2667.91V192.313H2666.91ZM2691.41 167.812C2677.88 167.812 2666.91 178.782 2666.91 192.313H2667.91C2667.91 179.334 2678.43 168.812 2691.41 168.812V167.812ZM2852.48 167.812L2691.41 167.812V168.812H2852.48V167.812ZM2876.98 192.313C2876.98 178.782 2866.01 167.812 2852.48 167.812V168.812C2865.46 168.812 2875.98 179.334 2875.98 192.313H2876.98ZM2876.98 274.618V192.313H2875.98V274.618H2876.98ZM3056.46 558.164C3056.46 471.895 3036.26 409.176 3003.67 363.872C2971.07 318.567 2926.1 290.723 2876.64 274.144L2876.32 275.092C2925.63 291.621 2970.4 319.36 3002.85 364.456C3035.3 409.552 3055.46 472.052 3055.46 558.164H3056.46ZM2718.78 859.529C2795.06 859.529 2879.48 849.501 2944.84 806.796C3010.23 764.064 3056.46 688.674 3056.46 558.164H3055.46C3055.46 688.404 3009.35 763.446 2944.29 805.959C2879.18 848.499 2795.01 858.529 2718.78 858.529V859.529ZM2586.99 859.529H2718.78V858.529H2586.99V859.529ZM2562.46 835.029C2562.46 848.56 2573.46 859.529 2586.99 859.529V858.529C2574.01 858.529 2563.46 848.007 2563.46 835.029H2562.46ZM2562.46 276.485V835.029H2563.46V276.485H2562.46ZM2586.97 251.985C2573.44 251.985 2562.46 262.954 2562.46 276.485H2563.46C2563.46 263.507 2573.99 252.985 2586.97 252.985L2586.97 251.985ZM2667.41 251.985L2586.97 251.985L2586.97 252.985L2667.41 252.985L2667.41 251.985ZM2666.54 380.553V730.961H2667.54V380.553H2666.54ZM2757.07 380.053L2667.04 380.053L2667.04 381.053L2757.07 381.053L2757.07 380.053ZM2952.38 557.148C2952.38 481.694 2925.65 437.374 2887.8 411.946C2849.98 386.543 2801.16 380.053 2757.07 380.053L2757.07 381.053C2801.09 381.053 2849.68 387.541 2887.24 412.776C2924.77 437.985 2951.38 481.963 2951.38 557.148H2952.38ZM2757.07 731.461C2801.15 731.461 2849.98 725.668 2887.79 700.962C2925.65 676.229 2952.38 632.602 2952.38 557.148H2951.38C2951.38 632.332 2924.77 675.611 2887.25 700.125C2849.68 724.666 2801.1 730.461 2757.07 730.461V731.461ZM2667.04 731.461H2757.07V730.461H2667.04V731.461Z" fill="#ECF8FE"/>
</mask>
<g mask="url(#mask2_8_494)">
<rect x="3469.16" y="-611.621" width="1710.36" height="1911.1" transform="rotate(69 3469.16 -611.621)" fill="#1D1E23"/>
</g>
</g>
</g>
<mask id="mask3_8_494" style="mask-type:alpha" maskUnits="userSpaceOnUse" x="2562" y="167" width="495" height="693">
<path fill-rule="evenodd" clip-rule="evenodd" d="M2667.41 252.485V192.313C2667.41 179.058 2678.16 168.312 2691.41 168.312H2852.48C2865.73 168.312 2876.48 179.058 2876.48 192.313V274.618C2975.25 307.726 3055.96 385.783 3055.96 558.164C3055.96 818.914 2871.29 859.029 2718.78 859.029H2586.99C2573.73 859.029 2562.96 848.283 2562.96 835.029V276.485C2562.96 263.23 2573.72 252.485 2586.97 252.485L2667.41 252.485ZM2667.04 730.961V380.553L2757.07 380.553C2845.19 380.553 2951.88 406.509 2951.88 557.147C2951.88 707.786 2845.19 730.961 2757.07 730.961H2667.04Z" fill="#ECF8FE" stroke="#ECF8FE"/>
<path d="M2764.74 572.095L2798.31 451.449C2798.62 450.327 2800.27 450.553 2800.27 451.717V544.547C2800.27 545.099 2800.72 545.547 2801.27 545.547H2835.09C2836.41 545.547 2837.37 546.809 2837.02 548.084L2802.23 672.734C2801.92 673.855 2800.27 673.629 2800.27 672.466V575.631C2800.27 575.079 2799.82 574.631 2799.27 574.631H2766.67C2765.35 574.631 2764.39 573.37 2764.74 572.095Z" fill="#78D7D3" stroke="#78D7D3" stroke-width="16"/>
</mask>
<g mask="url(#mask3_8_494)">
<rect x="3469.16" y="-611.621" width="1710.36" height="1911.1" transform="rotate(69 3469.16 -611.621)" fill="url(#paint1_linear_8_494)"/>
</g>
<mask id="mask4_8_494" style="mask-type:alpha" maskUnits="userSpaceOnUse" x="182" y="269" width="2290" height="763">
<path d="M705.795 480.875H581.364C579.091 464.777 574.451 450.477 567.443 437.977C560.436 425.288 551.439 414.492 540.455 405.591C529.47 396.689 516.78 389.871 502.386 385.136C488.182 380.402 472.746 378.034 456.08 378.034C425.966 378.034 399.735 385.515 377.386 400.477C355.038 415.25 337.708 436.841 325.398 465.25C313.087 493.47 306.932 527.75 306.932 568.091C306.932 609.568 313.087 644.417 325.398 672.636C337.898 700.856 355.322 722.163 377.67 736.557C400.019 750.951 425.871 758.148 455.227 758.148C471.705 758.148 486.951 755.97 500.966 751.614C515.17 747.258 527.765 740.913 538.75 732.58C549.735 724.057 558.826 713.735 566.023 701.614C573.409 689.492 578.523 675.667 581.364 660.136L705.795 660.705C702.576 687.409 694.527 713.167 681.648 737.977C668.958 762.598 651.818 784.663 630.227 804.17C608.826 823.489 583.258 838.83 553.523 850.193C523.977 861.367 490.549 866.955 453.239 866.955C401.345 866.955 354.943 855.212 314.034 831.727C273.314 808.242 241.117 774.246 217.443 729.739C193.958 685.231 182.216 631.348 182.216 568.091C182.216 504.644 194.148 450.667 218.011 406.159C241.875 361.652 274.261 327.75 315.17 304.455C356.08 280.97 402.102 269.227 453.239 269.227C486.951 269.227 518.201 273.962 546.989 283.432C575.966 292.902 601.629 306.727 623.977 324.909C646.326 342.901 664.508 364.966 678.523 391.102C692.727 417.239 701.818 447.163 705.795 480.875ZM912.756 606.727V859H791.733V277.182H909.347V499.625H914.46C924.309 473.867 940.218 453.697 962.188 439.114C984.157 424.341 1011.71 416.955 1044.86 416.955C1075.16 416.955 1101.58 423.583 1124.12 436.841C1146.85 449.909 1164.46 468.754 1176.96 493.375C1189.65 517.807 1195.9 547.068 1195.71 581.159V859H1074.69V602.75C1074.88 575.856 1068.06 554.928 1054.23 539.966C1040.6 525.004 1021.47 517.523 996.847 517.523C980.369 517.523 965.786 521.027 953.097 528.034C940.597 535.042 930.748 545.269 923.551 558.716C916.544 571.973 912.945 587.977 912.756 606.727ZM1415.38 867.239C1387.54 867.239 1362.73 862.409 1340.95 852.75C1319.17 842.902 1301.94 828.413 1289.25 809.284C1276.75 789.966 1270.5 765.913 1270.5 737.125C1270.5 712.883 1274.95 692.523 1283.85 676.045C1292.75 659.568 1304.87 646.311 1320.21 636.273C1335.55 626.235 1352.98 618.659 1372.49 613.545C1392.18 608.432 1412.83 604.833 1434.42 602.75C1459.8 600.098 1480.25 597.636 1495.78 595.364C1511.31 592.902 1522.58 589.303 1529.59 584.568C1536.6 579.833 1540.1 572.826 1540.1 563.545V561.841C1540.1 543.848 1534.42 529.928 1523.05 520.08C1511.88 510.231 1495.97 505.307 1475.33 505.307C1453.55 505.307 1436.22 510.136 1423.34 519.795C1410.46 529.265 1401.94 541.197 1397.77 555.591L1285.84 546.5C1291.52 519.985 1302.69 497.068 1319.36 477.75C1336.03 458.242 1357.52 443.28 1383.85 432.864C1410.36 422.258 1441.05 416.955 1475.89 416.955C1500.14 416.955 1523.34 419.795 1545.5 425.477C1567.85 431.159 1587.64 439.966 1604.87 451.898C1622.3 463.83 1636.03 479.17 1646.07 497.92C1656.1 516.481 1661.12 538.735 1661.12 564.682V859H1546.35V798.489H1542.94C1535.93 812.125 1526.56 824.152 1514.82 834.568C1503.07 844.795 1488.96 852.845 1472.49 858.716C1456.01 864.398 1436.97 867.239 1415.38 867.239ZM1450.04 783.716C1467.85 783.716 1483.57 780.212 1497.2 773.205C1510.84 766.008 1521.54 756.348 1529.3 744.227C1537.07 732.106 1540.95 718.375 1540.95 703.034V656.727C1537.16 659.189 1531.96 661.462 1525.33 663.545C1518.89 665.439 1511.6 667.239 1503.45 668.943C1495.31 670.458 1487.16 671.879 1479.02 673.205C1470.88 674.341 1463.49 675.383 1456.86 676.33C1442.66 678.413 1430.25 681.727 1419.64 686.273C1409.04 690.818 1400.8 696.973 1394.93 704.739C1389.06 712.314 1386.12 721.784 1386.12 733.148C1386.12 749.625 1392.09 762.22 1404.02 770.932C1416.14 779.455 1431.48 783.716 1450.04 783.716ZM1755.01 859V422.636H1872.34V498.773H1876.89C1884.84 471.689 1898.2 451.235 1916.95 437.409C1935.7 423.394 1957.29 416.386 1981.72 416.386C1987.78 416.386 1994.31 416.765 2001.32 417.523C2008.33 418.28 2014.48 419.322 2019.79 420.648V528.034C2014.11 526.33 2006.25 524.814 1996.21 523.489C1986.17 522.163 1976.98 521.5 1968.65 521.5C1950.85 521.5 1934.94 525.383 1920.92 533.148C1907.1 540.723 1896.11 551.33 1887.97 564.966C1880.01 578.602 1876.04 594.322 1876.04 612.125V859H1755.01ZM2258.64 1031.73C2219.43 1031.73 2185.81 1026.33 2157.78 1015.53C2129.94 1004.93 2107.78 990.439 2091.31 972.068C2074.83 953.697 2064.13 933.053 2059.2 910.136L2171.14 895.08C2174.55 903.792 2179.94 911.936 2187.33 919.511C2194.72 927.087 2204.47 933.148 2216.59 937.693C2228.9 942.428 2243.86 944.795 2261.48 944.795C2287.8 944.795 2309.49 938.356 2326.53 925.477C2343.77 912.788 2352.39 891.481 2352.39 861.557V781.727H2347.27C2341.97 793.848 2334.02 805.307 2323.41 816.102C2312.8 826.898 2299.17 835.705 2282.5 842.523C2265.83 849.341 2245.95 852.75 2222.84 852.75C2190.08 852.75 2160.25 845.174 2133.35 830.023C2106.65 814.682 2085.34 791.292 2069.43 759.852C2053.71 728.223 2045.85 688.261 2045.85 639.966C2045.85 590.534 2053.9 549.246 2070 516.102C2086.1 482.958 2107.5 458.148 2134.2 441.67C2161.1 425.193 2190.55 416.955 2222.56 416.955C2246.99 416.955 2267.44 421.121 2283.92 429.455C2300.4 437.598 2313.66 447.826 2323.69 460.136C2333.92 472.258 2341.78 484.189 2347.27 495.932H2351.82V422.636H2471.99V863.261C2471.99 900.383 2462.9 931.443 2444.72 956.443C2426.53 981.443 2401.34 1000.19 2369.15 1012.69C2337.14 1025.38 2300.3 1031.73 2258.64 1031.73ZM2261.19 761.841C2280.7 761.841 2297.18 757.011 2310.62 747.352C2324.26 737.504 2334.68 723.489 2341.88 705.307C2349.26 686.936 2352.95 664.966 2352.95 639.398C2352.95 613.83 2349.36 591.67 2342.16 572.92C2334.96 553.981 2324.55 539.303 2310.91 528.886C2297.27 518.47 2280.7 513.261 2261.19 513.261C2241.31 513.261 2224.55 518.659 2210.91 529.455C2197.27 540.061 2186.95 554.833 2179.94 573.773C2172.94 592.712 2169.43 614.587 2169.43 639.398C2169.43 664.587 2172.94 686.367 2179.94 704.739C2187.14 722.92 2197.46 737.03 2210.91 747.068C2224.55 756.917 2241.31 761.841 2261.19 761.841Z" fill="white"/>
</mask>
<g mask="url(#mask4_8_494)">
<rect width="2208.31" height="3353.16" transform="matrix(0.383352 0.923602 -0.942377 0.334554 2321.79 -1217.27)" fill="url(#paint2_linear_8_494)"/>
</g>
<defs>
<filter id="filter0_f_8_494" x="2527.46" y="132.812" width="564" height="761.716" filterUnits="userSpaceOnUse" color-interpolation-filters="sRGB">
<feFlood flood-opacity="0" result="BackgroundImageFix"/>
<feBlend mode="normal" in="SourceGraphic" in2="BackgroundImageFix" result="shape"/>
<feGaussianBlur stdDeviation="17.5" result="effect1_foregroundBlur_8_494"/>
</filter>
<linearGradient id="paint0_linear_8_494" x1="4526.66" y1="775.7" x2="4154.35" y2="141.125" gradientUnits="userSpaceOnUse">
<stop stop-color="#D9C7FF"/>
<stop offset="0.5" stop-color="#78CBF6"/>
<stop offset="1" stop-color="#78D7D3"/>
</linearGradient>
<linearGradient id="paint1_linear_8_494" x1="4526.66" y1="775.7" x2="4154.35" y2="141.125" gradientUnits="userSpaceOnUse">
<stop stop-color="#D9C7FF"/>
<stop offset="0.5" stop-color="#78CBF6"/>
<stop offset="1" stop-color="#78D7D3"/>
</linearGradient>
<linearGradient id="paint2_linear_8_494" x1="1216.52" y1="2688.52" x2="1658.81" y2="487.792" gradientUnits="userSpaceOnUse">
<stop stop-color="#D9C7FF"/>
<stop offset="0.5" stop-color="#78CBF6"/>
<stop offset="1" stop-color="#78D7D3"/>
</linearGradient>
</defs>
</svg>
